<svg xmlns="http://www.w3.org/2000/svg" width="191" height="43" fill="#242C3E"><path d="M7.248.948a.805.805 0 0 0-.803-.804H.803A.802.802 0 0 0 0 .948v41.143a.805.805 0 0 0 .803.804h5.642a.802.802 0 0 0 .803-.804zm11.325 6.467V42.31a.58.58 0 0 0 .58.58l6.136.013c.204 0 .325-.101.362-.303.114-.618.17-1.24.17-1.866.003-10.985.005-22.08.005-33.287 0-.207.101-.312.305-.314l6.192-.04a.532.532 0 0 0 .528-.526l.04-5.571a.852.852 0 0 0-.521-.792.838.838 0 0 0-.326-.064L12.398.144c-.585 0-.878.293-.878.88l.008 5.516a.627.627 0 0 0 .181.437.618.618 0 0 0 .435.183l6.243.064c.124 0 .186.064.186.191m20.914.012-2.046 4.422a.434.434 0 0 0 .381.612l2.512.056a.421.421 0 0 0 .377-.187 48.37 48.37 0 0 0 3.028-4.708c.755-1.341.358-5.078.37-6.694a.75.75 0 0 0-.45-.692.735.735 0 0 0-.281-.06L38.22.124c-.713-.005-1.07.348-1.07 1.059V6.34a.786.786 0 0 0 .724.78l1.502.115c.13.01.167.074.111.191ZM61.39 35.866c-1.557.02-4.68.506-4.672-2.001.007-1.457.007-2.888 0-4.295a.878.878 0 0 0-.255-.615.868.868 0 0 0-.612-.256 240.656 240.656 0 0 0-5.388.02c-.623.008-.938.4-.946 1.174-.032 3.335-.525 7.127.997 9.734 2.265 3.872 6.807 3.204 11.115 3.204 5.245.004 9.02-1.11 9.176-7.18.047-1.873.052-6.032.015-12.476-.007-1.21-.365-1.938-1.498-2.316a1887.22 1887.22 0 0 0-12.366-4.08c-.127-.04-.192-.125-.195-.258-.093-3.77-.097-6.303-.012-7.597.14-2.161 4.8-2.181 6.029-1.413 1.22.76.806 4.747.79 6.045a.705.705 0 0 0 .704.712h5.964a.56.56 0 0 0 .56-.545C70.968 8.06 71.97.81 64.05.26c-5.93-.414-14.469-1.425-14.553 7.458a912.57 912.57 0 0 0-.02 12.934 1.765 1.765 0 0 0 1.208 1.663l12.49 4.127a.552.552 0 0 1 .377.514c.048 2.337.067 4.551.056 6.642-.008 1.491-.747 2.247-2.217 2.268ZM96.956 7.204h13.002c.601 0 .903-.302.906-.907V.749a.61.61 0 0 0-.608-.609H90.312c-.538 0-.807.27-.807.808v41.214a.757.757 0 0 0 .759.757l5.861-.02a.635.635 0 0 0 .632-.637V25.224c0-.14.07-.21.21-.21h10.186a.49.49 0 0 0 .488-.486l.016-6.045c.003-.356-.175-.533-.532-.533h-10.17a.199.199 0 0 1-.198-.2V7.404c0-.132.066-.199.199-.199Zm53.24 9.313c-.214-3.513-.23-5.964-.047-7.355.182-1.398 1-2.065 2.451-2.002 1.757.072 4.364-.497 4.34 2.237a81.832 81.832 0 0 0 .079 4.31c.019.435.244.653.676.653h5.798c.484 0 .725-.243.723-.728-.032-6.062 1.188-13.233-7.268-13.42-6.338-.143-14.02-1.282-14.071 7.697-.022 3.892-.031 7.792-.028 11.7.004 2.547.81 2.571 2.877 3.256l11.035 3.653c.127.042.192.131.195.267.013 2.244.01 4.49-.008 6.737-.008.856-.251 1.919-1.077 2.15-.97.27-5.452.775-5.639-1.33a39.832 39.832 0 0 1-.111-4.907.71.71 0 0 0-.715-.74h-5.826a.65.65 0 0 0-.644.605c-.854 12.357 2.019 14.207 13.646 13.567 3.231-.175 5.782-.931 7.026-3.924.392-.95.592-2.837.6-5.66.01-3.377.01-6.756 0-10.136-.008-1.878-.906-2.101-2.4-2.603a993.538 993.538 0 0 0-11.405-3.76.276.276 0 0 1-.207-.267m26.676-.032a68.513 68.513 0 0 1 .06-7.418c.143-2.249 2.372-1.899 4.176-1.87 1.538.023 2.543.417 2.555 2.1.014 1.529.022 3.033.024 4.514a.54.54 0 0 0 .537.537l6.151-.008a.525.525 0 0 0 .525-.513c.127-6.328 1.152-13.56-7.622-13.635-5.432-.052-13.626-1.174-13.682 7.02a1217.46 1217.46 0 0 0-.012 13.495 1.736 1.736 0 0 0 1.196 1.644l12.621 4.159a.424.424 0 0 1 .29.398c.011 2.298-.03 4.642-.123 7.032-.048 1.157-.697 1.774-1.947 1.85-1.3.076-4.554.47-4.689-1.325a46.593 46.593 0 0 1-.088-4.915.834.834 0 0 0-.826-.856h-5.607a.839.839 0 0 0-.835.825c-.091 6.67-1.041 12.962 7.86 13.352 5.87.258 13.416.911 13.483-7.323.032-4.104.034-8.209.004-12.313-.008-1.043-.27-1.978-1.275-2.313a4190.54 4190.54 0 0 0-12.557-4.15.294.294 0 0 1-.219-.287"/><path d="M6.445.144H.803A.803.803 0 0 0 0 .948v41.143c0 .444.36.804.803.804h5.642c.444 0 .803-.36.803-.804V.948a.803.803 0 0 0-.803-.804m11.942 7.08-6.243-.064a.618.618 0 0 1-.435-.183.627.627 0 0 1-.181-.437l-.008-5.516c0-.587.293-.88.878-.88L32.044.14a.838.838 0 0 1 .785.528.852.852 0 0 1 .062.328l-.04 5.571a.534.534 0 0 1-.528.526l-6.192.04c-.204.002-.305.107-.305.314 0 11.207-.002 22.303-.005 33.287 0 .626-.056 1.248-.17 1.866-.037.202-.158.303-.362.303l-6.136-.012a.586.586 0 0 1-.58-.581V7.415c0-.127-.062-.19-.186-.19Zm20.989.012-1.502-.115a.786.786 0 0 1-.723-.78V1.183c0-.711.356-1.064 1.069-1.059l5.158.052a.735.735 0 0 1 .678.467.75.75 0 0 1 .053.285c-.012 1.616.385 5.353-.37 6.694a48.37 48.37 0 0 1-3.028 4.708.421.421 0 0 1-.377.187l-2.512-.056a.433.433 0 0 1-.381-.612l2.046-4.422c.056-.117.019-.18-.111-.19Zm17.342 26.629c-.008 2.507 3.115 2.021 4.673 2.001 1.47-.02 2.21-.777 2.217-2.268.01-2.09-.008-4.305-.056-6.642a.553.553 0 0 0-.377-.514l-12.49-4.127a1.76 1.76 0 0 1-1.208-1.663 912.57 912.57 0 0 1 .02-12.934C49.581-1.165 58.12-.154 64.05.26c7.92.549 6.918 7.8 6.748 13.463a.562.562 0 0 1-.56.545h-5.965a.703.703 0 0 1-.704-.712c.016-1.297.43-5.285-.79-6.045-1.228-.768-5.89-.748-6.029 1.413-.085 1.294-.08 3.827.012 7.597.003.133.068.219.195.258 4.14 1.351 8.263 2.71 12.366 4.08 1.133.378 1.49 1.106 1.498 2.316.038 6.444.032 10.603-.015 12.476-.156 6.07-3.93 7.184-9.176 7.18-4.307 0-8.85.668-11.114-3.204-1.523-2.607-1.03-6.4-.998-9.734.008-.775.323-1.166.946-1.174a240.03 240.03 0 0 1 5.388-.02c.23 0 .45.093.612.256a.878.878 0 0 1 .255.615c.007 1.407.007 2.838 0 4.295ZM96.757 7.403v10.348a.199.199 0 0 0 .199.199h10.169c.357 0 .535.177.532.533l-.016 6.045a.49.49 0 0 1-.488.486H96.968c-.14 0-.21.07-.21.21v17.038a.637.637 0 0 1-.633.637l-5.861.02a.754.754 0 0 1-.759-.757V.948c0-.538.269-.808.807-.808h19.944a.608.608 0 0 1 .608.61v5.547c-.003.605-.305.907-.906.907H96.956c-.133 0-.199.067-.199.2Zm53.646 9.381a993.538 993.538 0 0 1 11.405 3.76c1.494.502 2.392.725 2.4 2.603.01 3.38.01 6.76 0 10.136-.008 2.823-.208 4.71-.6 5.66-1.244 2.992-3.795 3.749-7.026 3.924-11.627.64-14.5-1.21-13.646-13.567a.65.65 0 0 1 .644-.605h5.826a.719.719 0 0 1 .669.459.71.71 0 0 1 .046.281 39.832 39.832 0 0 0 .111 4.907c.187 2.105 4.669 1.6 5.639 1.33.826-.231 1.069-1.294 1.077-2.15.018-2.247.021-4.493.008-6.737-.003-.136-.068-.225-.195-.267l-11.035-3.653c-2.067-.685-2.873-.709-2.877-3.256-.003-3.908.006-7.808.028-11.7.051-8.979 7.733-7.84 14.071-7.697 8.456.187 7.236 7.358 7.268 13.42.002.485-.239.728-.723.728h-5.798c-.432 0-.657-.218-.676-.653a81.832 81.832 0 0 1-.079-4.31c.024-2.734-2.583-2.165-4.34-2.237-1.451-.063-2.269.604-2.451 2.002-.183 1.39-.167 3.842.047 7.355a.276.276 0 0 0 .207.267m26.688-.012a4190.54 4190.54 0 0 1 12.557 4.15c1.005.335 1.267 1.27 1.275 2.313.03 4.104.028 8.209-.004 12.313-.067 8.234-7.613 7.581-13.483 7.323-8.901-.39-7.951-6.682-7.86-13.352a.835.835 0 0 1 .835-.824h5.607a.824.824 0 0 1 .826.855 46.593 46.593 0 0 0 .088 4.915c.135 1.795 3.389 1.401 4.689 1.326 1.25-.077 1.899-.694 1.947-1.85.093-2.391.134-4.735.123-7.033a.417.417 0 0 0-.29-.398l-12.621-4.159a1.736 1.736 0 0 1-1.196-1.643c-.021-4.42-.017-8.92.012-13.496.056-8.194 8.25-7.072 13.682-7.02 8.774.076 7.749 7.307 7.622 13.635a.525.525 0 0 1-.525.513l-6.151.008a.537.537 0 0 1-.537-.537 578.04 578.04 0 0 0-.024-4.513c-.012-1.684-1.017-2.078-2.555-2.102-1.804-.028-4.033-.378-4.176 1.87a68.513 68.513 0 0 0-.06 7.419.294.294 0 0 0 .219.287"/><path fill-rule="evenodd" d="M135.573 2.165a6.808 6.808 0 0 1 1.991 4.812V36.07a6.809 6.809 0 0 1-1.991 4.813 6.788 6.788 0 0 1-4.804 1.993h-7.781a6.79 6.79 0 0 1-4.805-1.993 6.812 6.812 0 0 1-1.99-4.813V6.977c0-1.805.716-3.535 1.99-4.812a6.79 6.79 0 0 1 4.805-1.993h7.781c1.802 0 3.53.717 4.804 1.993m-5.518 5.447c.37.371.578.874.578 1.399v25.025a1.973 1.973 0 0 1-1.974 1.978h-3.394a1.975 1.975 0 0 1-1.975-1.978V9.01a1.975 1.975 0 0 1 1.975-1.978h3.394a1.97 1.97 0 0 1 1.396.58" clip-rule="evenodd"/></svg>