<svg xmlns="http://www.w3.org/2000/svg" width="160" height="30" fill="currentColor"><path fill="#00A67A" d="M0 0h30v30H0V0Z"/><path fill="#FAFAFA" fill-opacity=".98" d="M25 12.125h-7.219L15 5l-2.781 7.125H5l5.531 5.438L8.781 25 15 20.969 21.219 25l-1.75-7.438L25 12.125Z"/><path fill="#00A67A" d="M32.5 0h30v30h-30V0Z"/><path fill="#FAFAFA" fill-opacity=".98" d="M57.5 12.125h-7.219L47.5 5l-2.781 7.125H37.5l5.531 5.438L41.281 25l6.219-4.031L53.719 25l-1.75-7.438 5.531-5.437Z"/><path fill="#00A67A" d="M65 0h30v30H65V0Z"/><path fill="#FAFAFA" fill-opacity=".98" d="M90 12.125h-7.219L80 5l-2.781 7.125H70l5.531 5.438L73.781 25 80 20.969 86.219 25l-1.75-7.438L90 12.125Z"/><path fill="#00A67A" d="M97.5 0h30v30h-30V0Z"/><path fill="#FAFAFA" fill-opacity=".98" d="M122.5 12.125h-7.219L112.5 5l-2.781 7.125H102.5l5.531 5.438-1.75 7.437 6.219-4.031L118.719 25l-1.75-7.438 5.531-5.437Z"/><path fill="#00A67A" d="M130 0h30v30h-30V0Z"/><path fill="#FAFAFA" fill-opacity=".98" d="M155 12.125h-7.219L145 5l-2.781 7.125H135l5.531 5.438-1.75 7.437L145 20.969 151.219 25l-1.75-7.438L155 12.125Z"/></svg>