<svg xmlns="http://www.w3.org/2000/svg" width="301" height="43" fill="#242C3E"><path d="M232.885 5.14 246.907.015a.258.258 0 0 1 .176 0l14.021 5.125a.262.262 0 0 1 .136.114l7.455 12.967c.03.053.041.115.03.175l-2.592 14.764a.263.263 0 0 1-.09.155l-11.422 9.624a.257.257 0 0 1-.167.061h-14.92a.258.258 0 0 1-.168-.061l-11.42-9.624a.258.258 0 0 1-.09-.155l-2.589-14.769a.255.255 0 0 1 .031-.175l7.451-12.962a.259.259 0 0 1 .136-.114Zm6.889 4.32a.13.13 0 0 0-.065.018.139.139 0 0 0-.047.047l-7.253 12.619a.122.122 0 0 0-.017.064c0 .023.005.045.017.065l7.236 12.586a.14.14 0 0 0 .047.047.13.13 0 0 0 .065.017h14.473a.13.13 0 0 0 .112-.064l7.238-12.586a.132.132 0 0 0 0-.13l-7.255-12.618a.13.13 0 0 0-.112-.065h-14.439ZM71.978 16.42C73.81 7.93 80.61 2.08 89.308 1.67c9.21-.435 16.897 4.552 18.106 14.215.006.053-.017.08-.07.08h-9.309a.124.124 0 0 1-.122-.102c-.858-4.906-5.367-6.91-9.898-5.962-3.945.828-6.02 4.152-6.788 7.893-1.144 5.57.19 13.691 6.77 15.176a9.73 9.73 0 0 0 4.344-.022c3.014-.687 5.107-2.497 5.713-5.63.011-.06.046-.089.105-.089h9.268a.09.09 0 0 1 .064.028.087.087 0 0 1 .018.03c.004.01.005.023.004.034-.502 7.388-6.803 12.56-13.756 13.63-14.965 2.302-24.83-10.375-21.78-24.53Zm80.566-2.397c-.909-9.684 9.665-12.947 17.15-12.299 6.831.59 12.697 3.945 13.258 11.496.012.158-.061.237-.219.237h-9.141c-.041 0-.062-.021-.064-.063-.231-4.302-5.386-5.094-8.673-4.294-1.464.357-2.812 1.393-2.947 3-.563 6.68 22.187 2.724 22.261 16.447.059 10.838-10.658 13.332-19.171 12.538-7.477-.697-13.305-4.774-13.64-12.907-.005-.094.04-.141.135-.141h9.226c.022 0 .042.008.058.023a.088.088 0 0 1 .027.057c.15 2.496 1.41 4.67 3.885 5.415 2.726.822 9.575 1.06 10.029-3.33.327-3.153-3.525-4.248-5.799-4.858-6.349-1.707-15.597-3.032-16.375-11.321ZM0 10.418V2.51a.063.063 0 0 1 .063-.063h32.213a.062.062 0 0 1 .058.039.062.062 0 0 1 .005.024v7.908a.062.062 0 0 1-.018.045.062.062 0 0 1-.044.018H20.93a.063.063 0 0 0-.063.063v29.8a.063.063 0 0 1-.063.063h-9.271a.063.063 0 0 1-.063-.063v-29.8a.063.063 0 0 0-.063-.063H.063a.064.064 0 0 1-.045-.018.063.063 0 0 1-.018-.045Zm46.467 6.992H65.07a.074.074 0 0 1 .074.075v7.417a.075.075 0 0 1-.075.074H46.468a.074.074 0 0 0-.075.075v7.205a.075.075 0 0 0 .075.074h20.93a.075.075 0 0 1 .075.075v8.055a.075.075 0 0 1-.075.075H37.07a.074.074 0 0 1-.075-.075V2.522a.075.075 0 0 1 .075-.075h29.82a.074.074 0 0 1 .074.075v7.332a.075.075 0 0 1-.074.074H46.467a.075.075 0 0 0-.075.075v7.332a.075.075 0 0 0 .075.075Zm76.021 0h13.867a.073.073 0 0 0 .072-.073l-.001-14.817a.073.073 0 0 1 .072-.073h9.294c.019 0 .038.008.052.021a.076.076 0 0 1 .021.052v37.941c0 .02-.008.038-.021.052a.075.075 0 0 1-.052.022h-9.294a.073.073 0 0 1-.072-.074V25.645a.075.075 0 0 0-.045-.068.076.076 0 0 0-.028-.006h-13.865a.076.076 0 0 0-.068.045.088.088 0 0 0-.005.029V40.46c0 .02-.008.038-.021.052a.075.075 0 0 1-.052.022h-9.251a.073.073 0 0 1-.052-.022.076.076 0 0 1-.021-.052V2.521c0-.02.008-.039.021-.053a.073.073 0 0 1 .052-.021h9.251c.019 0 .038.008.052.021a.076.076 0 0 1 .021.052v14.817c0 .02.008.038.021.052a.073.073 0 0 0 .052.02Zm77.05 10.251V40.45c0 .057-.028.086-.085.086h-9.27a.084.084 0 0 1-.084-.085V2.535c0-.052.026-.078.077-.078 9.461-.024 15.599-.024 18.417 0 5.718.048 11.442 2.67 12.7 8.83.512 2.5.467 5.016-.132 7.546-1.449 6.126-6.292 8.617-12.238 8.692-3.092.039-6.19.053-9.294.044-.061 0-.091.031-.091.092Zm11.571-8.962c1.954-2.275 1.3-6.919-1.543-8.172-.883-.39-1.63-.59-2.24-.602a253.866 253.866 0 0 0-7.714-.029.077.077 0 0 0-.074.077v10.326c0 .054.027.081.081.081 2.207.012 4.414.011 6.62-.001 1.768-.009 3.636-.245 4.87-1.68Zm78.374 21.708h-9.263a.087.087 0 0 1-.062-.026.087.087 0 0 1-.026-.062v-29.75a.087.087 0 0 0-.026-.062.087.087 0 0 0-.062-.026h-11.253a.087.087 0 0 1-.062-.026.087.087 0 0 1-.026-.062V2.535c0-.023.009-.046.026-.062a.087.087 0 0 1 .062-.026h32.121a.09.09 0 0 1 .088.088v7.858a.087.087 0 0 1-.026.062.087.087 0 0 1-.062.026h-11.253a.089.089 0 0 0-.088.088v29.75a.087.087 0 0 1-.026.062.085.085 0 0 1-.062.026Z"/><path d="m239.677 26.378 7.267-12.64a.073.073 0 0 1 .021-.02.062.062 0 0 1 .029-.007.06.06 0 0 1 .028.008.073.073 0 0 1 .021.02l7.267 12.639a.059.059 0 0 1 .007.029.05.05 0 0 1-.008.029.055.055 0 0 1-.021.02.057.057 0 0 1-.029.008h-14.531a.057.057 0 0 1-.029-.007.06.06 0 0 1-.022-.08Z"/></svg>