<svg xmlns="http://www.w3.org/2000/svg" width="130" height="24" fill="currentColor"><path fill="#00B67A" d="M.525 0h24.187v24H.525V0Zm26.203 0h24.188v24H26.728V0Zm26.203 0H77.12v24H52.93V0Zm26.203 0h24.188v24H79.134V0Zm26.203 0h24.188v24h-24.188V0Z"/><path fill="#FAFAFA" d="m12.618 16.175 3.679-.925 1.537 4.7-5.216-3.775Zm8.466-6.075h-6.475l-1.99-6.05-1.991 6.05H4.153l5.24 3.75-1.99 6.05 5.24-3.75 3.225-2.3 5.216-3.75Zm17.737 6.075 3.679-.925 1.537 4.7-5.216-3.775Zm8.466-6.075h-6.475l-1.99-6.05-1.991 6.05h-6.475l5.24 3.75-1.99 6.05 5.24-3.75 3.226-2.3 5.215-3.75Zm17.737 6.075 3.679-.925 1.537 4.7-5.216-3.775ZM73.49 10.1h-6.475l-1.99-6.05-1.991 6.05h-6.475l5.24 3.75-1.99 6.05 5.24-3.75 3.226-2.3 5.215-3.75Zm17.738 6.075 3.678-.925 1.537 4.7-5.215-3.775Zm8.465-6.075h-6.475l-1.99-6.05-1.99 6.05h-6.476l5.24 3.75-1.99 6.05 5.24-3.75 3.226-2.3 5.215-3.75Zm17.738 6.075 3.678-.925 1.537 4.7-5.215-3.775Zm8.465-6.075h-6.475l-1.99-6.05-1.991 6.05h-6.475l5.241 3.75-1.991 6.05 5.241-3.75 3.225-2.3 5.215-3.75Z"/></svg>