<svg xmlns="http://www.w3.org/2000/svg" width="114" height="56" fill="#242C3E"><path d="M25.232 28.978c.584.003.91-.335.981-1.015C27.296 17.695 30.797 7.185 38.421.362c.16-.146.133-.218-.079-.218C27.238.134 16.132.133 5.023.139.86.144.007 2.234.003 6.179-.002 8.828 0 11.45.006 14.042a.503.503 0 0 0 .176.38.487.487 0 0 0 .4.106c1.86-.343 3.68 2.42 3.906 3.714.765 4.385 2.211 11.798 5.095 14.922.114.12.252.183.414.186.802.012 1.232-.475 1.29-1.46.327-5.568-.695-12.86 1.82-17.913 2.179-4.376 6.32-3.097 7.421 1.126 1.087 4.191 2.21 8.37 3.367 12.54.203.728.484 1.33 1.336 1.335Z"/><path d="M25.956 46.385c-3.971-2.063-6.73-11.051-8.007-15.219a.287.287 0 0 0-.29-.198.285.285 0 0 0-.262.235c-.7 4.427-.175 17.041-7.288 16.88-1.313-.033-2.676-.845-3.307-1.953-1.627-2.85-2.838-6.522-4.363-9.554a217.045 217.045 0 0 1-2.151-4.409.148.148 0 0 0-.167-.081.147.147 0 0 0-.114.146c-.01 6.24-.01 12.5 0 18.78.01 3.634 1.843 4.993 5.426 4.988h45.315c3.349 0 4.961-1.317 5.044-4.872.067-2.856.069-5.713.005-8.572-.003-.173-.068-.2-.194-.078-8.14 8.029-22.572 6.086-21.6-7.872.46-6.574 3.535-11.603 9.222-15.09 4.206-2.577 9.854-1.84 11.217 3.083 1.129 4.084-.995 8.743-4.256 11.45-2.935 2.434-6.362 3.107-9.913 1.725a.256.256 0 0 0-.345.168.26.26 0 0 0 0 .143c1.998 7.334 11.202 4.496 15.55 1.483a.409.409 0 0 0 .19-.347c.34-10.936.207-22.145.092-32.887C55.7-1.094 48.725.084 45.418.158a.444.444 0 0 0-.378.222c-7.622 12.906-12.3 27.118-14.031 42.635-.267 2.388-2.548 4.673-5.053 3.37m87.136-6.81c-4.307 2.634-9.839 1.957-12.861-2.382-5.952-8.54 4.151-19.276 12.875-13.42a.488.488 0 0 0 .76-.4l.102-5.572a.414.414 0 0 0-.249-.39c-9.706-4.097-20.642 1.781-21.826 12.295-1.331 11.756 9.241 19.975 20.31 16.85.885-.25 1.802-.481 1.797-1.357a275.063 275.063 0 0 0-.101-5.183.533.533 0 0 0-.544-.519.53.53 0 0 0-.263.078"/><path d="M47.003 24.815c-2.152-1.585-6.293 1.822-5.4 3.806 1.217 2.712 9.72-.626 5.4-3.806m-21.771 4.163c-.852-.005-1.133-.607-1.336-1.335a761.596 761.596 0 0 1-3.367-12.54c-1.101-4.223-5.242-5.502-7.421-1.126-2.515 5.053-1.493 12.345-1.82 17.912-.058.986-.488 1.473-1.29 1.46a.564.564 0 0 1-.414-.185C6.7 30.04 5.254 22.627 4.489 18.242c-.226-1.294-2.045-4.057-3.906-3.714a.48.48 0 0 1-.4-.107.496.496 0 0 1-.176-.38C0 11.45-.001 8.829.002 6.18.007 2.234.86.144 5.023.14 16.131.133 27.238.134 38.343.144c.211 0 .237.072.078.218-7.624 6.823-11.125 17.333-12.208 27.6-.07.68-.397 1.02-.98 1.016Z"/><path d="M25.956 46.385c2.505 1.303 4.786-.982 5.053-3.37C32.74 27.498 37.418 13.286 45.04.38a.454.454 0 0 1 .378-.222C48.725.083 55.7-1.094 55.76 4.334c.115 10.741.248 21.95-.093 32.887a.409.409 0 0 1-.188.347c-4.349 3.013-13.553 5.85-15.552-1.483a.26.26 0 0 1 .204-.326.256.256 0 0 1 .142.015c3.551 1.382 6.978.71 9.913-1.724 3.261-2.708 5.385-7.367 4.256-11.45-1.363-4.924-7.01-5.661-11.217-3.084-5.687 3.487-8.761 8.516-9.222 15.09-.972 13.958 13.46 15.9 21.6 7.871.126-.12.19-.094.194.08a185.49 185.49 0 0 1-.005 8.57C55.709 54.684 54.097 56 50.748 56H5.433C1.85 56.005.016 54.646.007 51.012c-.01-6.28-.01-12.54 0-18.78a.149.149 0 0 1 .114-.146.147.147 0 0 1 .167.081 215.1 215.1 0 0 0 2.151 4.41c1.525 3.03 2.736 6.703 4.363 9.553.63 1.108 1.994 1.92 3.307 1.952 7.112.162 6.587-12.452 7.287-16.879a.289.289 0 0 1 .263-.235.284.284 0 0 1 .29.198c1.276 4.168 4.036 13.156 8.006 15.22Zm74.275-9.192c3.022 4.339 8.554 5.016 12.861 2.383a.53.53 0 0 1 .807.44c.049 1.687.083 3.415.101 5.183.005.876-.912 1.108-1.797 1.358-11.069 3.124-21.641-5.095-20.31-16.851 1.184-10.514 12.12-16.392 21.826-12.294a.414.414 0 0 1 .249.39l-.102 5.572a.488.488 0 0 1-.76.398c-8.724-5.855-18.827 4.882-12.875 13.42Z"/><path d="M41.604 28.621c1.216 2.712 9.72-.626 5.399-3.806-2.152-1.585-6.293 1.822-5.4 3.806Z"/><path fill-rule="evenodd" d="M77.848 16.007c6.767.037 10.355 4.441 10.024 11.108-.475 9.5-8.338 9.332-15.362 9.182l-.397-.008c-.473-.01-.71.224-.71.7v9.8a.518.518 0 0 1-.52.519h-5.67c-.403-.003-.604-.207-.604-.612v-30.11a.633.633 0 0 1 .242-.497l.005-.004a.56.56 0 0 1 .143-.082.626.626 0 0 1 .24-.047c4.42.016 8.623.033 12.609.051M71.39 30.698l.027-8.92a.565.565 0 0 1 .347-.519.553.553 0 0 1 .215-.041l3.478.014c1.372.005 2.686.502 3.654 1.38.967.88 1.508 2.068 1.505 3.307v.695a4.28 4.28 0 0 1-.399 1.789 4.67 4.67 0 0 1-1.128 1.513 5.247 5.247 0 0 1-1.684 1.008 5.67 5.67 0 0 1-1.985.349l-3.478-.014a.556.556 0 0 1-.552-.561" clip-rule="evenodd"/></svg>