<svg xmlns="http://www.w3.org/2000/svg" width="31" height="31" fill="none"><path stroke="#FAFAFA" stroke-linecap="round" stroke-linejoin="round" stroke-width="2.281" d="M9.797 1.813v2.28M4.094 9.798H1.812m27.375 0h-2.28M4.093 15.5H1.812m27.375 0h-2.28M4.093 21.203H1.812m27.375 0h-2.28m-17.11 5.703v2.282M15.5 1.813v2.28m0 22.813v2.282m5.703-27.375v2.28m0 22.813v2.282M7.516 26.905h15.968a3.422 3.422 0 0 0 3.422-3.422V7.516a3.422 3.422 0 0 0-3.422-3.422H7.516a3.422 3.422 0 0 0-3.422 3.422v15.968a3.422 3.422 0 0 0 3.422 3.422Zm1.14-18.25h13.688v13.688H8.656V8.656Z"/></svg>