<svg xmlns="http://www.w3.org/2000/svg" width="30" height="31" fill="currentColor">
  <path d="M9.134 2v2.281M3.431 9.984H1.15m27.375 0h-2.281M3.43 15.688H1.15m27.375 0h-2.281M3.43 21.39H1.15m27.375 0h-2.281m-17.11 5.703v2.281M14.837 2v2.281m0 22.813v2.281M20.541 2v2.281m0 22.813v2.281M6.853 27.094h15.969a3.422 3.422 0 0 0 3.422-3.422V7.703a3.422 3.422 0 0 0-3.422-3.422H6.853a3.422 3.422 0 0 0-3.422 3.422v15.969a3.422 3.422 0 0 0 3.422 3.422Zm1.14-18.25h13.688V22.53H7.994V8.844Z" vector-effect="non-scaling-stroke"/>
</svg>
