<svg xmlns="http://www.w3.org/2000/svg" width="19" height="20" fill="none" viewBox="0 0 19 20">
  <path stroke="#FAFAFA" stroke-linecap="round" stroke-linejoin="round" stroke-width="1.5" d="M12.612 3.328A8.252 8.252 0 0 1 9.25 19.114 8.25 8.25 0 0 1 3.288 5.162 8.287 8.287 0 0 0 6.25 7.715 8.983 8.983 0 0 1 9.612.85a8.21 8.21 0 0 0 3 2.48Z"/>
  <path stroke="#FAFAFA" stroke-linecap="round" stroke-linejoin="round" stroke-width="1.5" d="M9.25 16.115a3.75 3.75 0 0 0 .495-7.468 5.99 5.99 0 0 0-1.925 3.546 5.973 5.973 0 0 1-2.133-1 3.75 3.75 0 0 0 3.563 4.922Z"/>
</svg>
