<svg xmlns="http://www.w3.org/2000/svg" width="128" height="63" fill="currentColor">
  <path d="m119.738 0-.027.002c-2.196.158-5.122.814-7.895 1.926h-96.67L4.67 47.554H72.8c1.446.843 3.203 1.335 5.165 1.506l.033.002h3.429l.03-.002a30.063 30.063 0 0 0 3.421-.475c2.038-.398 4.189-1.007 6.417-1.818a57.21 57.21 0 0 0 5.174-2.183c3.821-1.829 7.762-4.185 11.626-7.025a77.101 77.101 0 0 0 6.76-5.588l.005-.004.004-.005c2.77-2.664 4.874-5.374 6.093-7.822.636-1.275 1.034-2.481 1.134-3.6.099-1.12-.116-2.18-.746-3.011-.462-.61-1.111-1.014-1.856-1.28 2.425-1.988 4.398-4.11 5.692-6.188 1.512-2.426 2.186-4.83 1.448-6.853-.472-1.3-1.54-2.278-2.945-2.784a8.019 8.019 0 0 0-2.036-.421L121.615 0h-1.877Zm1.802 1.504c.615.007 1.162.166 1.633.335 1.07.385 1.727 1.02 2.04 1.88v.002c.497 1.362.067 3.334-1.311 5.546s-3.656 4.61-6.55 6.777l-1.597 1.197 1.991.154c1.178.09 1.954.455 2.397 1.04.363.48.523 1.115.447 1.971-.076.856-.405 1.906-.982 3.064-1.107 2.223-3.112 4.832-5.785 7.405a75.321 75.321 0 0 1-6.621 5.473c-3.791 2.787-7.654 5.095-11.385 6.88h-.001a55.623 55.623 0 0 1-5.038 2.126c-2.163.788-4.24 1.375-6.19 1.756a28.58 28.58 0 0 1-3.23.45h-3.28l-.046-.006h.303c-3.002-.261-5.372-1.314-6.785-3.232a6.82 6.82 0 0 1-.668-1.137c-.12-.294-.233-.592-.348-.892-.3-.957-.42-2.017-.367-3.148.15-3.151 1.632-6.9 4.197-10.824 2.725-4.171 6.675-8.543 11.566-12.6a74.244 74.244 0 0 1 3.415-2.678 72.947 72.947 0 0 1 4.423-2.997c5.448-3.424 10.882-5.82 15.697-7.037-4.602 1.498-9.77 4.043-14.878 7.507-.184.123-.365.25-.546.375a66.44 66.44 0 0 0-7.641 6.146c-7.209 6.768-11.02 13.78-9.288 17.89.124.282.27.552.442.807 1.861 2.733 6.473 3.206 12.318 1.739.398-.1.795-.212 1.205-.33 1.867-.537 3.849-1.264 5.89-2.16.492-.217.988-.44 1.487-.677.052-.024.1-.048.151-.075 6.444-3.197 11.397-6.876 12.469-9.086.235-.48.291-.89.131-1.212-.764-1.548-6.116-.502-12.6 2.302-.52.226-1.048.458-1.58.705a45.857 45.857 0 0 1 3.65-3.063 46.03 46.03 0 0 1 3.812-2.594c5.908-4.45 8.895-8.66 8.271-10.222-.117-.295-.367-.497-.753-.62-1.231-.392-3.479.075-6.21 1.193-2.253.922-4.84 2.29-7.463 3.993l-.357.235-.066.038-1.261.836.724-1.325c1.075-1.965 2.826-4.015 5.007-5.92a35.524 35.524 0 0 1 5.392-3.852 34.417 34.417 0 0 1 2.23-1.202 32.064 32.064 0 0 1 2.268-.996c3.624-1.248 5.736-1.983 9.271-1.937Zm-52.36.49c-.296 4.497.577 11.084 2.559 18.397.352 1.301.736 2.625 1.157 3.965.262.827.532 1.641.81 2.443-.163.239-.327.476-.48.714-2.473 3.783-3.918 7.358-4.282 10.467-1.045-3.494-1.832-7.32-2.278-11.378a69.281 69.281 0 0 1-.291-3.449c-.488-8.25.59-15.73 2.804-21.16ZM19.84 7.847h11.304c.951 0 1.687.178 2.211.536.52.36.716.825.593 1.39L32.62 15.76h-3.924l1.29-5.826H20.16l-3.548 16.01-1.28 5.798h9.815l.01-.037 1.967-8.87h-4.611l.442-2.002h8.535l-2.447 11.069c-.033.157-.09.3-.169.441-.202.367-.554.681-1.045.94-.68.358-1.495.535-2.446.535H14.26c-.952 0-1.688-.177-2.212-.535-.52-.358-.719-.815-.592-1.381l4.902-22.128c.126-.565.521-1.03 1.205-1.39.024-.013.05-.016.075-.028.624-.312 1.356-.488 2.202-.508Zm17.448 0H51.3c.939 0 1.678.178 2.202.536.527.36.728.825.602 1.39l-2.616 11.802c-.124.562-.528 1.02-1.214 1.381-.687.361-1.495.545-2.437.545H37.655l-1.967 8.86-.32 1.456h-3.84l.292-1.315 5.468-24.655Zm19.357 0h3.84l-4.349 19.61-.95 4.284h9.185c.096.703.208 1.394.329 2.076H50.886l1.091-4.923 4.668-21.047ZM40.666 9.933l-2.55 11.482h9.57l2.54-11.482h-9.56ZM32.62 35.622c.038-.002.075 0 .113 0 .446 0 .835.078 1.148.225.334.157.574.389.706.695.13.298.163.636.094 1.006l-.028.14h-1.101l.01-.131c.028-.258-.004-.462-.104-.601a.654.654 0 0 0-.047-.057.621.621 0 0 0-.095-.075c-.154-.097-.395-.15-.705-.15-.413 0-.721.072-.932.216-.205.141-.334.3-.376.489-.042.192.027.293.075.347l.01.01c.06.052.272.173.93.329.597.144.992.273 1.215.385.337.171.573.393.696.667.124.27.15.587.076.93a2.118 2.118 0 0 1-.5.93c-.25.289-.567.517-.95.677-.38.156-.795.244-1.223.244-.542 0-.977-.082-1.317-.244a1.517 1.517 0 0 1-.763-.78c-.144-.337-.175-.72-.094-1.137l.029-.132h1.082l-.01.132c-.027.25 0 .45.066.601.063.145.184.264.377.357.204.1.46.15.752.15.262 0 .502-.043.716-.121.21-.076.378-.175.498-.301a.834.834 0 0 0 .217-.404c.03-.13.023-.239-.028-.329-.057-.096-.171-.182-.349-.254l-.922-.272c-.515-.13-.861-.253-1.063-.376-.274-.163-.472-.37-.574-.62-.103-.247-.113-.52-.047-.818a2 2 0 0 1 .46-.892 2.32 2.32 0 0 1 .923-.63 3.244 3.244 0 0 1 1.035-.206Zm9.88.018c.06-.005.116 0 .18 0l.677.076.226.018-.33.836-.065.132-.518-.047c-.153 0-.265.023-.338.075l-.02.02a.33.33 0 0 0-.037.037.886.886 0 0 0-.141.357l-.038.15h.81l-.207.93h-.791l-.8 3.58h-1.091l.8-3.58h-.631l.207-.93h.621c.03-.13.076-.291.076-.291.066-.301.135-.517.225-.667a1.42 1.42 0 0 1 .518-.508c.18-.105.41-.168.668-.188Zm2.608.047-.358 1.607h.706l-.207.93h-.706c-.057.259-.508 2.265-.508 2.265s-.038.24-.038.31v.019h.01l.113.009.517-.038-.056.837.009.15-.743.084c-.295 0-.512-.048-.668-.15a.665.665 0 0 1-.302-.432c-.006-.033-.018-.081-.018-.15 0-.136.025-.365.112-.762l.48-2.142h-.517l.207-.93h.517l.217-.958.875-.461.358-.188Zm-34.677.038h4.234l-.235 1.052h-3.096l-.31 1.39h2.681l-.235 1.053h-2.682c-.057.262-.574 2.584-.574 2.584H9.076l1.355-6.08Zm5.674 1.484c.043-.005.09 0 .132 0 .27 0 .521.083.762.254l.15.103-.583.959-.16-.113a.69.69 0 0 0-.376-.112.59.59 0 0 0-.33.112.83.83 0 0 0-.282.31 2.968 2.968 0 0 0-.282.77l-.508 2.312h-1.092l1.007-4.51h1.016l-.047.188c.048-.036.1-.086.141-.113.146-.087.3-.14.452-.16Zm3.237 0c.066-.005.13 0 .198 0 .614 0 1.079.215 1.383.64.19.273.292.611.292 1.014 0 .223-.028.462-.085.723l-.084.33h-3.068c-.006.062-.01.13-.01.187 0 .235.048.42.15.555a.711.711 0 0 0 .17.169.836.836 0 0 0 .461.122c.223 0 .42-.061.603-.179.174-.11.341-.289.489-.535h1.167l-.104.225a2.583 2.583 0 0 1-.922 1.053 2.5 2.5 0 0 1-1.364.385c-.666 0-1.161-.215-1.468-.639-.305-.415-.37-.989-.207-1.71.162-.734.487-1.32.96-1.729.423-.367.904-.57 1.44-.61Zm4.903 0c.066-.005.13 0 .198 0 .614 0 1.079.215 1.383.64.19.273.291.611.291 1.014 0 .22-.027.456-.084.714l-.085.338h-3.067l-.01.123c-.002.015.001.04 0 .056v.01c0 .044.007.089.01.13.015.172.06.316.14.424.016.02.03.047.048.066.138.147.333.225.583.225.223 0 .422-.061.602-.179a1.58 1.58 0 0 0 .49-.535h1.176l-.113.225a2.585 2.585 0 0 1-.922 1.053c-.389.25-.853.385-1.365.385-.665 0-1.16-.215-1.468-.639-.198-.27-.291-.615-.291-1.024a3.394 3.394 0 0 1 .085-.686c.162-.73.477-1.32.95-1.729a2.46 2.46 0 0 1 1.449-.61Zm13.353 0c.067-.005.13 0 .198 0 .626 0 1.108.212 1.42.63.31.418.386.982.227 1.691-.124.553-.302 1-.546 1.325a2.57 2.57 0 0 1-.922.77c-.365.18-.75.273-1.14.273-.638 0-1.113-.218-1.42-.639-.199-.267-.3-.612-.3-1.024 0-.223.023-.46.084-.724.18-.806.55-1.42 1.091-1.813a2.544 2.544 0 0 1 1.308-.489Zm16.534 0c.08-.004.153 0 .236 0 .379 0 .677.039.903.132.24.096.411.232.508.395.093.153.14.341.14.573l-.112.686-.207.93c-.178.794-.217 1.091-.226 1.203-.009.15.005.296.047.432l.076.244h-1.11l-.048-.141c-.018-.066-.013-.15-.019-.226-.21.13-.422.245-.611.31-.28.097-.57.15-.866.15-.512 0-.891-.132-1.12-.394a.998.998 0 0 1-.254-.695c0-.102.013-.208.038-.32.05-.228.144-.44.291-.629a1.76 1.76 0 0 1 .509-.451c.186-.111.394-.19.611-.244l.668-.113c.515-.06.9-.135 1.177-.216a.587.587 0 0 1 .018-.066c.044-.193.039-.339-.009-.413-.003-.005-.015-.015-.019-.019-.01-.01-.026-.028-.038-.038-.113-.089-.306-.131-.564-.131-.292 0-.508.048-.659.14-.148.094-.284.264-.404.508h-1.139l.104-.226a2.4 2.4 0 0 1 .498-.77 2.08 2.08 0 0 1 .79-.46c.243-.08.508-.133.791-.15Zm4.771 0c.043-.005.089 0 .132 0 .274 0 .53.083.772.254l.14.103-.583.959-.16-.113a.665.665 0 0 0-.367-.112.624.624 0 0 0-.339.112.834.834 0 0 0-.272.31c-.124.231-.22.491-.283.77l-.517 2.312h-1.092l1.007-4.51h1.016s-.025.137-.037.188c.048-.036.096-.086.14-.113.144-.087.291-.14.443-.16Zm3.228 0c.066-.005.13 0 .198 0 .614 0 1.082.215 1.383.64.192.273.291.611.291 1.014 0 .223-.036.462-.094.723l-.075.33h-3.068c-.006.062-.018.13-.018.187 0 .235.05.42.15.555.015.02.04.047.056.066l.038.037a.788.788 0 0 0 .546.188c.223 0 .419-.061.602-.179.175-.11.34-.289.49-.535h1.176l-.113.225a2.607 2.607 0 0 1-.922 1.053c-.392.25-.85.385-1.365.385-.665 0-1.151-.215-1.458-.639-.304-.415-.377-.989-.217-1.71.163-.734.478-1.32.95-1.729.427-.367.915-.57 1.45-.61Zm-16.478.085h1.12l.141 2.715c.045-.096.08-.176.085-.187l1.233-2.528h1.026l.094 2.66 1.402-2.66h1.11l-2.446 4.51H48.41l-.104-2.584c-.416.85-1.26 2.584-1.26 2.584H46.01l-.358-4.51Zm-26.292.855c-.26.01-.495.104-.715.282a1.374 1.374 0 0 0-.386.536h1.854c.003-.033.01-.074.01-.104a.776.776 0 0 0-.085-.394c-.133-.217-.33-.32-.621-.32h-.057Zm4.903 0c-.26.01-.495.104-.715.282-.175.138-.29.328-.386.536h1.854c.003-.033.01-.074.01-.104 0-.171-.028-.304-.086-.394a.756.756 0 0 0-.094-.123c-.126-.13-.299-.197-.527-.197h-.056Zm37.923 0a1.218 1.218 0 0 0-.743.282c-.172.138-.29.328-.386.536h1.845c.003-.033.009-.074.009-.104 0-.171-.027-.304-.085-.394-.13-.214-.329-.317-.62-.32h-.02Zm-24.655.019a1.25 1.25 0 0 0-.696.338c-.26.235-.447.603-.555 1.09-.045.205-.066.38-.066.536 0 .213.04.38.122.507a.78.78 0 0 0 .076.094c.134.142.32.216.555.216.304 0 .572-.113.828-.348.259-.237.444-.61.555-1.108.102-.457.088-.799-.057-1.015-.138-.21-.34-.31-.62-.31-.048 0-.096-.006-.142 0Zm17.005 1.644c-.256.07-.543.128-.922.179a3.19 3.19 0 0 0-.603.131.672.672 0 0 0-.254.179.557.557 0 0 0-.132.244.66.66 0 0 0-.009.103v.038a.387.387 0 0 0 .01.047c0 .004.007.015.009.019.003.008.005.02.01.028l.018.028.028.038c.075.084.226.122.443.122a1.5 1.5 0 0 0 .677-.15c.208-.103.375-.255.499-.433.09-.126.163-.32.226-.573ZM117.739 63l.813-3.434c.34-1.53 1.189-2.58 1.951-2.58.548 0 .699.4.672.924-.015.27-.076.574-.139.874L120.03 63h2.168l.814-3.449c.373-1.578 1.174-2.565 1.921-2.565.515 0 .728.367.704.89a4.892 4.892 0 0 1-.156.942L124.505 63h2.183l1.051-4.453c.082-.4.175-1.022.19-1.341.066-1.323-.581-2.024-1.75-2.024-.999 0-1.972.451-2.71 1.401-.027-.685-.518-1.4-1.734-1.4-.985 0-1.924.444-2.677 1.452h-.03l.201-1.152h-1.933a38.19 38.19 0 0 1-.515 2.33L115.571 63h2.168Zm-7.574 0c2.62 0 4.641-1.982 4.782-4.679.088-1.786-1.027-3.139-3.083-3.139-2.717 0-4.665 2.195-4.8 4.847-.094 1.93 1.153 2.97 3.101 2.97Zm.353-1.804c-.765 0-1.187-.487-1.142-1.215.061-1.212.81-2.995 2.102-2.995.892 0 1.166.683 1.129 1.354-.066 1.322-.873 2.856-2.089 2.856Zm-5.475-9.32-.846 3.415c-.307-.127-.708-.109-1.021-.109-2.885 0-4.926 2.466-5.062 5.136-.09 1.882.916 2.682 2.21 2.682.907 0 1.861-.4 2.584-1.434h.03L102.767 63h2.041c.094-.902.289-1.976.509-2.956l1.954-8.169h-2.228Zm-1.758 7.341c-.353 1.483-1.184 1.979-1.84 1.979-.654 0-1.018-.454-.973-1.263.075-1.497 1.105-2.947 2.445-2.947.377 0 .699.058.876.142l-.508 2.09Zm-7.167 1.753c-.624.304-1.334.226-2.16.226-.656 0-1.159-.114-1.436-.337-.144-.244-.208-.622-.196-.866 3.054.081 4.975-.622 5.074-2.547.073-1.452-.99-2.264-2.535-2.264-2.761 0-4.568 2.43-4.686 4.769C90.08 61.993 91.14 63 93.323 63c.843 0 1.958-.096 2.87-.37l-.075-1.66Zm-.822-3.523c-.037.715-.922.757-2.669.742.193-.628.829-1.203 1.874-1.203.514 0 .813.196.794.46Zm-7.161 3.523c-.624.304-1.334.226-2.162.226-.654 0-1.16-.114-1.437-.337-.144-.244-.205-.622-.192-.866 3.05.081 4.974-.622 5.07-2.547.073-1.452-.99-2.264-2.535-2.264-2.758 0-4.565 2.43-4.683 4.769-.102 2.042.961 3.049 3.144 3.049.84 0 1.957-.096 2.867-.37l-.072-1.66Zm-.825-3.523c-.037.715-.922.757-2.665.742.19-.628.828-1.203 1.873-1.203.514 0 .81.196.792.46ZM78.143 63l.675-2.827c.355-1.53 1.105-2.886 2.523-2.886.127 0 .25.063.344.078l.547-2.168c-.126 0-.264-.015-.421-.015-1.045 0-1.921.734-2.505 1.786h-.06c.087-.514.162-1 .22-1.485h-1.937c-.108.626-.283 1.85-.545 2.953L75.882 63h2.261Zm-10.076 0h2.247l1.012-4.21h3.646l.47-1.804h-3.665l.609-2.706h3.9l.469-2.104h-6.158L68.067 63Zm-9.666 0 .795-3.386c.413-1.722 1.301-2.327 2.033-2.327.578 0 .747.247.72.605-.016.288-.06.592-.121.862L60.816 63h2.247l1.066-4.453c.08-.385.171-.96.19-1.308.066-1.356-.612-1.85-1.859-1.85-1 0-1.972.464-2.74 1.468h-.03l.205-1.374h-1.982c-.13.644-.295 1.422-.53 2.33L56.155 63H58.4Zm-4.306 0 1.822-7.517h-2.232L51.852 63h2.243Zm1.045-8.419c.765 0 1.445-.631 1.487-1.714.037-.733-.44-.992-1.14-.992-.733 0-1.401.475-1.44 1.185-.036.715.44 1.521 1.093 1.521Zm-13.06 8.064c.434.337 1.343.34 2.291.355 2.027.015 3.557-.87 3.647-2.493.051-1.082-.789-1.723-1.61-2.152-.594-.286-.892-.56-.877-.878.021-.43.425-.49 1.018-.49.668 0 1.204.08 1.511.14l.609-1.629c-.347-.207-1.04-.316-1.928-.316-1.966 0-3.405 1.038-3.487 2.613-.048.974.654 1.63 1.503 2.075.687.352.921.622.903 1.004-.02.385-.364.322-.987.322a14.02 14.02 0 0 1-1.97-.163l-.623 1.612ZM40.607 63c.019-.953.247-2.45.485-3.434l.967-4.083c-.614-.207-1.572-.3-2.493-.3-3.74 0-5.596 2.766-5.725 5.357-.081 1.627.801 2.46 2.174 2.46.889 0 1.891-.43 2.671-1.723h.033c-.06.622-.132 1.227-.171 1.723h2.06Zm-1.544-4.294c-.44 1.912-1.337 2.49-2.006 2.49-.623 0-.894-.442-.858-1.086.072-1.452 1.223-3.124 2.674-3.124.235 0 .419-.042.59-.084l-.4 1.804Zm-10.08 2.264c-.623.304-1.333.226-2.158.226-.657 0-1.16-.114-1.437-.337-.144-.244-.208-.622-.195-.866 3.053.081 4.974-.622 5.074-2.547.072-1.452-.991-2.264-2.536-2.264-2.761 0-4.568 2.43-4.686 4.769-.099 2.042.961 3.049 3.144 3.049.843 0 1.958-.096 2.87-.37l-.075-1.66Zm-.821-3.523c-.036.715-.922.757-2.668.742.192-.628.828-1.203 1.873-1.203.515 0 .813.196.795.46ZM21 60.97c-.623.304-1.334.226-2.162.226-.654 0-1.16-.114-1.437-.337-.144-.244-.204-.622-.192-.866 3.05.081 4.974-.622 5.07-2.547.073-1.452-.99-2.264-2.535-2.264-2.758 0-4.565 2.43-4.682 4.769C14.96 61.993 16.02 63 18.206 63c.84 0 1.955-.096 2.867-.37l-.072-1.66Zm-.825-3.523c-.036.715-.922.757-2.665.742.19-.628.828-1.203 1.873-1.203.515 0 .81.196.792.46ZM11.009 63l.675-2.827c.355-1.53 1.105-2.886 2.523-2.886.127 0 .25.063.344.078l.548-2.168c-.127 0-.265-.015-.422-.015-1.045 0-1.921.734-2.505 1.786h-.06a29.6 29.6 0 0 0 .22-1.485h-1.937c-.111.626-.283 1.85-.545 2.953L8.748 63h2.261ZM.934 63H3.18l1.009-4.21h3.65l.47-1.804H4.643l.608-2.706h3.9l.47-2.104H3.462L.933 63Z"/>
</svg>
