<svg xmlns="http://www.w3.org/2000/svg" width="136" height="30" fill="currentColor">
  <path d="m17.39 0 17.389 30H0l3.676-6.343H23.75l-6.36-10.972-2.671 4.609H7.365L17.389 0Zm25.454 24.219 7.16-18.989h5.966l7.159 18.989h-5.3l-1.138-3.29h-7.603l-1.138 3.29h-5.106Zm7.437-6.993h5.19l-1.36-4.008a82.26 82.26 0 0 0-.278-.746 28.396 28.396 0 0 0-.305-.968l-.278-1.05a11.25 11.25 0 0 0-.277-.912h-.195c-.074.35-.185.746-.333 1.188-.13.443-.268.885-.416 1.327-.13.442-.25.83-.36 1.161l-1.388 4.008Zm17.623 6.993V9.293h-6.188V5.23h17.343v4.063h-6.188V24.22h-4.967Zm13.952 0V5.23h4.968v14.926h9.684v4.063H81.856Zm15.431 0 7.159-18.989h5.966l7.16 18.989h-5.301l-1.137-3.29h-7.604l-1.138 3.29h-5.105Zm7.436-6.993h5.19l-1.36-4.008a84.229 84.229 0 0 0-.278-.746 27.304 27.304 0 0 0-.305-.968l-.277-1.05c-.093-.35-.185-.654-.278-.912h-.194c-.074.35-.185.746-.333 1.188-.13.443-.268.885-.416 1.327-.13.442-.25.83-.361 1.161l-1.388 4.008Zm23.035 7.324c-1.202 0-2.331-.11-3.385-.331-1.055-.203-1.989-.544-2.803-1.023a5.418 5.418 0 0 1-1.887-1.88c-.462-.792-.694-1.76-.694-2.902v-.248c0-.093.01-.166.028-.221h4.801c0 .055-.009.128-.028.22v.194c0 .59.148 1.069.444 1.437.315.35.749.608 1.304.774.555.148 1.203.221 1.943.221.407 0 .786-.018 1.138-.055a4.47 4.47 0 0 0 .943-.193c.278-.092.518-.203.722-.332.222-.147.379-.313.471-.498.111-.202.167-.433.167-.69 0-.424-.167-.774-.5-1.05-.314-.277-.749-.508-1.304-.692a20.628 20.628 0 0 0-1.831-.525c-.685-.166-1.397-.34-2.137-.525a16.1 16.1 0 0 1-2.137-.691 7.958 7.958 0 0 1-1.859-1.05 4.922 4.922 0 0 1-1.304-1.576c-.315-.645-.472-1.419-.472-2.322 0-.995.213-1.852.638-2.57a5.091 5.091 0 0 1 1.748-1.797c.759-.46 1.628-.792 2.609-.995.98-.221 2.026-.332 3.136-.332 1.091 0 2.109.11 3.052.332.962.221 1.813.571 2.553 1.05a4.923 4.923 0 0 1 1.721 1.77c.425.7.647 1.547.666 2.542v.332h-4.773v-.194c0-.423-.121-.792-.361-1.105-.222-.332-.564-.59-1.027-.774-.462-.203-1.036-.304-1.72-.304-.685 0-1.268.064-1.749.193-.462.13-.823.314-1.082.553a1.17 1.17 0 0 0-.361.857c0 .405.158.737.472.995.333.258.777.48 1.332.663.555.185 1.175.36 1.859.526.685.147 1.388.313 2.109.497.74.166 1.453.387 2.137.663a7.255 7.255 0 0 1 1.859 1.023c.555.405.99.912 1.305 1.52.332.608.499 1.346.499 2.212 0 1.51-.361 2.727-1.082 3.648-.703.921-1.684 1.594-2.942 2.018-1.239.424-2.645.635-4.218.635Z"/>
</svg>
