<svg xmlns="http://www.w3.org/2000/svg" width="225" height="49" fill="currentColor">
  <path d="M11.848.26a.19.19 0 0 0-.055-.133.186.186 0 0 0-.132-.055L.306.052A.186.186 0 0 0 .119.24l-.02 11.41a.189.189 0 0 0 .115.174c.022.01.047.014.071.014l11.356.02a.185.185 0 0 0 .172-.116.19.19 0 0 0 .015-.072l.02-11.41ZM25.735.25a.188.188 0 0 0-.187-.188h-11.46a.187.187 0 0 0-.187.188v11.41a.188.188 0 0 0 .187.188h11.46a.186.186 0 0 0 .187-.188V.25Zm13.927 11.354C39.44 5.204 34.649.367 28.293.018c-.327-.017-.49.139-.49.467V11.63c0 .145.072.218.217.218h11.407c.163 0 .24-.082.235-.245ZM53.133 0c-6.395.481-11.086 5.139-11.39 11.547-.012.2.082.301.282.301h11.3a.217.217 0 0 0 .216-.218V.38a.377.377 0 0 0-.253-.358.385.385 0 0 0-.155-.021Zm14.305.289a.227.227 0 0 0-.226-.227H55.831a.225.225 0 0 0-.226.227v11.332a.227.227 0 0 0 .226.227h11.381a.225.225 0 0 0 .226-.227V.289Zm2.268 11.546c6.051.37 11.833-5.522 11.65-11.546-.005-.151-.082-.227-.23-.227H69.724c-.144 0-.217.073-.217.218v11.341c0 .134.067.205.2.214Zm81.692-2.293a.307.307 0 0 0-.303-.306l-8.298-.014a.3.3 0 0 0-.215.089.305.305 0 0 0-.089.216l-.01 5.832a.302.302 0 0 0 .303.306l8.297.014a.307.307 0 0 0 .282-.188.311.311 0 0 0 .023-.117l.01-5.832ZM11.833 14.218a.188.188 0 0 0-.186-.187H.187a.186.186 0 0 0-.187.187v11.41a.188.188 0 0 0 .187.189h11.46a.186.186 0 0 0 .186-.188v-11.41Zm13.902 0a.188.188 0 0 0-.187-.187h-11.46a.187.187 0 0 0-.187.187v11.41a.188.188 0 0 0 .187.189h11.46a.186.186 0 0 0 .187-.188v-11.41Zm2.311 11.625c6.42-.153 11.29-4.985 11.629-11.428.014-.256-.106-.384-.36-.384H28.02c-.145 0-.218.072-.218.218v11.354c0 .163.082.243.244.24Zm25.5-11.55a.262.262 0 0 0-.26-.262H41.963a.26.26 0 0 0-.26.261v11.263a.262.262 0 0 0 .26.262h11.321a.26.26 0 0 0 .26-.262V14.293Zm75.766 24.824c.168-.157.252-.12.252.11v2.151a.502.502 0 0 0 .308.461.495.495 0 0 0 .191.037l7.776-.057a.312.312 0 0 0 .309-.31l-.013-23.227c0-.433-.216-.65-.648-.65h-7.697a.217.217 0 0 0-.218.218c-.008 4.292-.02 8.572-.034 12.838-.013 5.22-6.803 5.308-6.816.149-.009-4.31-.007-8.566.004-12.769a.433.433 0 0 0-.43-.436h-7.594c-.44 0-.66.221-.66.663.009 5.13.06 10.372.152 15.724.083 4.832 3.293 8.355 8.106 8.272 2.459-.041 4.796-1.099 7.012-3.174Zm21.859-21.206a.273.273 0 0 0-.273-.275h-8.028a.275.275 0 0 0-.274.275v23.66a.275.275 0 0 0 .274.275h8.028a.272.272 0 0 0 .273-.275V17.91ZM225 33.888c0-1.583-.626-3.1-1.739-4.22a5.924 5.924 0 0 0-4.199-1.747 5.927 5.927 0 0 0-4.2 1.747 5.985 5.985 0 0 0 0 8.44 5.926 5.926 0 0 0 4.2 1.747 5.924 5.924 0 0 0 4.199-1.748 5.984 5.984 0 0 0 1.739-4.22ZM11.833 28.226a.228.228 0 0 0-.226-.227H.226a.226.226 0 0 0-.226.227v11.332a.227.227 0 0 0 .226.227h11.382a.225.225 0 0 0 .225-.227V28.226Zm29.91.118c.352 6.286 5.108 11.284 11.546 11.463.168.006.252-.076.252-.245V28.218a.219.219 0 0 0-.217-.218H42.07c-.23 0-.338.115-.326.345Zm25.695-.157a.188.188 0 0 0-.187-.188h-11.46a.186.186 0 0 0-.186.188v11.41a.188.188 0 0 0 .187.188h11.46a.186.186 0 0 0 .186-.188v-11.41ZM81.387 39.61c-.208-6.443-5.178-11.541-11.62-11.637a.256.256 0 0 0-.26.258v11.336c0 .145.072.218.216.218h11.5a.164.164 0 0 0 .164-.174Z"/>
  <path d="M11.661.072.306.052A.187.187 0 0 0 .119.24l-.02 11.41c0 .104.083.188.186.188l11.356.02a.187.187 0 0 0 .187-.188l.02-11.41a.187.187 0 0 0-.187-.188Zm13.887-.01h-11.46a.187.187 0 0 0-.187.188v11.41c0 .104.084.188.187.188h11.46a.187.187 0 0 0 .187-.188V.25a.187.187 0 0 0-.187-.188Zm2.745-.044c6.356.35 11.147 5.186 11.369 11.586.006.163-.072.244-.235.244H28.02c-.145 0-.218-.073-.218-.218V.485c0-.328.164-.484.491-.467Zm13.45 11.529C42.047 5.139 46.738.48 53.133 0a.385.385 0 0 1 .377.228c.021.048.032.1.031.152v11.25a.22.22 0 0 1-.217.218H42.025c-.2 0-.294-.1-.282-.301ZM67.212.062H55.831a.226.226 0 0 0-.226.227v11.332c0 .125.101.227.226.227h11.381a.226.226 0 0 0 .226-.227V.289a.226.226 0 0 0-.226-.227Zm14.145.227c.182 6.024-5.6 11.917-11.651 11.546-.133-.009-.2-.08-.2-.214V.281c0-.146.073-.219.217-.219h11.404c.147 0 .224.076.23.227Zm69.738 8.947-8.298-.014a.304.304 0 0 0-.304.305l-.01 5.832a.304.304 0 0 0 .303.306l8.297.014a.305.305 0 0 0 .305-.305l.01-5.832a.305.305 0 0 0-.303-.306ZM11.647 14.03H.187a.187.187 0 0 0-.187.188v11.41c0 .105.084.189.187.189h11.46a.187.187 0 0 0 .186-.188v-11.41a.187.187 0 0 0-.186-.188Zm13.901 0h-11.46a.187.187 0 0 0-.187.188v11.41c0 .105.084.189.187.189h11.46a.187.187 0 0 0 .187-.188v-11.41a.187.187 0 0 0-.187-.188Zm14.127.385c-.339 6.443-5.209 11.275-11.63 11.428-.162.003-.243-.077-.243-.24V14.249c0-.146.073-.218.218-.218h11.294c.255 0 .375.128.361.384Zm13.61-.385h-11.32a.261.261 0 0 0-.261.263v11.262c0 .144.116.262.26.262h11.321c.144 0 .26-.118.26-.262V14.293a.261.261 0 0 0-.26-.262Zm76.027 25.087c-2.216 2.075-4.553 3.133-7.012 3.174-4.813.083-8.023-3.44-8.106-8.272a1019.16 1019.16 0 0 1-.152-15.724c0-.442.22-.663.66-.663h7.594a.432.432 0 0 1 .43.436c-.011 4.203-.013 8.459-.004 12.768.013 5.16 6.803 5.073 6.816-.148.014-4.266.026-8.546.034-12.838a.218.218 0 0 1 .218-.218h7.697c.432 0 .648.217.648.65l.013 23.227a.312.312 0 0 1-.309.31l-7.776.057a.495.495 0 0 1-.499-.498v-2.152c0-.23-.084-.266-.252-.109Zm21.586-21.481h-8.028a.275.275 0 0 0-.274.275v23.66c0 .151.123.275.274.275h8.028a.274.274 0 0 0 .273-.275V17.91a.274.274 0 0 0-.273-.275Zm68.164 22.219c3.279 0 5.938-2.672 5.938-5.967 0-3.296-2.659-5.967-5.938-5.967-3.28 0-5.939 2.671-5.939 5.967 0 3.295 2.659 5.967 5.939 5.967ZM11.607 28H.226a.226.226 0 0 0-.226.226v11.332c0 .126.101.227.226.227h11.382a.226.226 0 0 0 .225-.227V28.226a.226.226 0 0 0-.226-.227ZM53.29 39.807c-6.438-.179-11.195-5.177-11.547-11.463-.012-.23.097-.345.326-.345h11.255a.216.216 0 0 1 .217.218v11.346c0 .168-.084.25-.252.244ZM67.251 28h-11.46a.187.187 0 0 0-.186.187v11.41c0 .104.084.188.187.188h11.46a.187.187 0 0 0 .186-.188v-11.41a.187.187 0 0 0-.187-.188Zm2.516-.027c6.442.096 11.412 5.194 11.62 11.638a.166.166 0 0 1-.165.174H69.723c-.144 0-.217-.073-.217-.218V28.23a.26.26 0 0 1 .161-.239.256.256 0 0 1 .1-.018Z"/>
  <path fill-rule="evenodd" d="m208.736 32.041-15.552-.013a.266.266 0 0 0-.134.035h-.001a.274.274 0 0 0-.139.23.279.279 0 0 0 .03.137c2.377 4.662 6.638 4.347 10.278 1.209a.282.282 0 0 1 .185-.078h.005a.282.282 0 0 1 .167.074l4.361 3.658c.119.098.129.208.031.327-3.285 3.99-8.098 5.43-12.972 4.527-6.872-1.28-10.839-6.68-10.143-13.83.808-8.393 8.692-13.34 16.59-10.462 6.029 2.195 7.789 7.97 7.615 13.872a.323.323 0 0 1-.118.241l-.01.009a.418.418 0 0 1-.048.03l-.01.004a.315.315 0 0 1-.135.03Zm-7.924-4.382-7.763.043a.111.111 0 0 1-.045-.007.114.114 0 0 1-.053-.043.113.113 0 0 1-.019-.063v-.07a3.99 3.99 0 0 1 2.423-3.693 3.928 3.928 0 0 1 1.512-.31h.087a3.937 3.937 0 0 1 2.799 1.152 3.994 3.994 0 0 1 1.172 2.807v.07a.112.112 0 0 1-.113.113Zm-28.02 13.824-.113-2.243c-.008-.166-.072-.191-.191-.075-3.006 2.937-6.307 3.83-9.904 2.68-10.192-3.247-10.339-20.743-.305-24.204 3.723-1.284 7.577-.354 10.218 2.588a.11.11 0 0 0 .161.007l.009-.01a.13.13 0 0 0 .03-.076l-.026-10.646c0-.183.092-.275.278-.275h7.984c.217 0 .326.109.326.327V41.57c0 .172-.085.26-.256.262l-7.802.04a.409.409 0 0 1-.352-.201l-.002-.003a.451.451 0 0 1-.055-.185Zm-1.191-8.028c-.884 1.038-2.1 1.638-3.382 1.667-1.282.029-2.525-.514-3.454-1.511-.93-.997-1.47-2.365-1.503-3.803-.032-1.44.446-2.83 1.33-3.869.883-1.038 2.1-1.637 3.382-1.666 1.282-.03 2.524.514 3.454 1.51.929.997 1.469 2.365 1.502 3.804.032 1.439-.446 2.83-1.329 3.868Zm-70.378-13.422c-.646-.434-1.29-.872-1.933-1.314-3.728-2.554-8.858-2.047-12.125.89-5.174 4.658-4.957 15.396 1.625 18.675 4.686 2.33 8.876 1.722 12.572-1.825a.055.055 0 0 1 .029-.016.059.059 0 0 1 .034.004c.011.005.02.012.028.022a.08.08 0 0 1 .013.034c.517 8.651-9.761 6.595-14.166 4.164a.473.473 0 0 0-.656.218l-2.26 4.793c-.188.399-.079.686.327.86 8.497 3.628 24.818 5.046 25.135-8.809.11-4.804.116-11.437.017-19.896 0-.07-.018-.121-.054-.155a.162.162 0 0 0-.054-.032.268.268 0 0 0-.092-.014h-7.958c-.18 0-.27.09-.27.27v2.017c0 .07-.011.118-.035.143-.034.038-.093.028-.177-.03Zm-1.154 5.033a4.539 4.539 0 0 1 1.475 3.258 4.538 4.538 0 0 1-1.373 3.303 4.98 4.98 0 0 1-3.415 1.414 4.98 4.98 0 0 1-3.459-1.305 4.535 4.535 0 0 1-1.474-3.258 4.536 4.536 0 0 1 1.372-3.304 4.98 4.98 0 0 1 3.416-1.413 4.982 4.982 0 0 1 3.458 1.305Z" clip-rule="evenodd"/>
</svg>
