<svg xmlns="http://www.w3.org/2000/svg" width="31" height="31" fill="currentColor">
  <path d="M20.838 19.092A8.462 8.462 0 0 1 12.602 29.5v-6.769m8.236-3.64C26.104 15.245 29.525 9.022 29.525 2c-7.021 0-13.243 3.421-17.09 8.687m8.403 8.405a21.05 21.05 0 0 1-8.236 3.64m-.168-12.045a8.462 8.462 0 0 0-10.41 8.236h6.771m3.64-8.236a21.052 21.052 0 0 0-3.64 8.236m3.807 3.808c-.146.03-.292.058-.44.084a21.278 21.278 0 0 1-3.451-3.452c.026-.147.054-.294.084-.44m-3.157 3.372a6.337 6.337 0 0 0-2.48 6.072 6.337 6.337 0 0 0 6.072-2.48m12.891-14.368a2.115 2.115 0 1 1-4.23 0 2.115 2.115 0 0 1 4.23 0Z" vector-effect="non-scaling-stroke"/>
</svg>
