<svg xmlns="http://www.w3.org/2000/svg" fill="currentColor" viewBox="0 0 24 24">
  <path fill-rule="evenodd" d="M15 2a1 1 0 0 1 1 1v1h1a3 3 0 0 1 3 3v1h1a1 1 0 1 1 0 2h-1v4h1a1 1 0 0 1 0 2h-1v1a3 3 0 0 1-3 3h-1v1a1 1 0 0 1-2 0v-1h-4v1a1 1 0 1 1-2 0v-1H7a3 3 0 0 1-3-3v-1H3a1 1 0 0 1 0-2h1v-4H3a1 1 0 0 1 0-2h1V7a3 3 0 0 1 3-3h1V3a1 1 0 0 1 2 0v1h4V3a1 1 0 0 1 1-1Zm2 4H7a1 1 0 0 0-1 1v10a1 1 0 0 0 1 1h10a1 1 0 0 0 1-1V7a1 1 0 0 0-1-1Zm-3 2a2 2 0 0 1 1.995 1.85L16 10v4a2 2 0 0 1-1.85 1.995L14 16h-4a2 2 0 0 1-1.995-1.85L8 14v-4a2 2 0 0 1 1.85-1.995L10 8h4Zm0 2h-4v4h4v-4Z" clip-rule="evenodd"/>
</svg>
