<svg fill="currentColor" viewBox="0 0 24 24" xmlns="http://www.w3.org/2000/svg"><path d="m19.884 4.1161c0.4881 0.48815 0.4881 1.2796 0 1.7678l-14 14c-0.48815 0.4881-1.2796 0.4881-1.7678 0-0.48816-0.4882-0.48816-1.2796 0-1.7678l14-14c0.4882-0.48816 1.2796-0.48816 1.7678 0z" clipRule="evenodd" fillRule="evenodd"/><path d="m4.1161 4.1161c0.48815-0.48816 1.2796-0.48816 1.7678 0l14 14c0.4881 0.4882 0.4881 1.2796 0 1.7678-0.4882 0.4881-1.2796 0.4881-1.7678 0l-14-14c-0.48816-0.48815-0.48816-1.2796 0-1.7678z" clipRule="evenodd" fillRule="evenodd"/></svg>