<svg xmlns="http://www.w3.org/2000/svg" fill="currentColor" viewBox="0 0 24 24">
  <path fill-rule="evenodd" d="M12 4a7 7 0 0 0-7 7v2a1 1 0 1 1-2 0v-2a9 9 0 1 1 18 0v3a21.998 21.998 0 0 1-.197 2.635c-.189 1.385-.585 3.241-1.503 4.465a1 1 0 0 1-1.6-1.2c.582-.776.936-2.17 1.122-3.535A21 21 0 0 0 19 14v-3a7 7 0 0 0-7-7Zm0 4a3 3 0 0 0-3 3v1c0 .94-.304 2.1-.868 3.158-.567 1.063-1.449 2.118-2.685 2.736a1 1 0 1 1-.894-1.788c.764-.382 1.382-1.077 1.815-1.89C6.804 13.4 7 12.56 7 12v-1a5 5 0 1 1 10 0v1.117c0 2.924.001 6.85-3.36 9.651a1.002 1.002 0 0 1-1.615-.46 1.001 1.001 0 0 1 .335-1.076C14.954 18.07 15 15.064 15 12v-1a3 3 0 0 0-3-3Zm1 3.5a1 1 0 0 0-2 0c0 1.197-.121 2.702-.574 4.059-.45 1.354-1.194 2.457-2.373 3.047a1 1 0 1 0 .894 1.788c1.821-.91 2.828-2.556 3.377-4.203.547-1.643.676-3.388.676-4.691Z" clip-rule="evenodd"/>
</svg>
