<svg xmlns="http://www.w3.org/2000/svg" fill="currentColor" viewBox="0 0 24 24">
  <path fill-rule="evenodd" d="m10.255 1.387 1.26.756a8.15 8.15 0 0 1 3.48 4.144c.222-.5.486-.985.73-1.475l.982.981C18.909 7.995 21 11.295 21 14.5c0 4.298-2.65 7.023-6.89 7.494l-1.39.154.304-1.365c.237-1.068.28-1.766.23-2.255-.06-.615-.352-1.098-.716-1.578-.348-.46-.693-.92-.97-1.43-1.134.897-1.574 1.707-1.715 2.374-.18.854.075 1.727.54 2.66l.823 1.643-1.826-.203c-2.576-.286-5.114-2.007-6.114-4.518-1.045-2.627-.306-5.806 3.07-8.732 2.24-1.94 3.426-4.458 3.909-7.357Zm1.332 3.3c-.762 2.14-2.225 4.09-3.932 5.57-2.911 2.522-3.172 4.843-2.52 6.48.485 1.22 1.532 2.222 2.773 2.791a5 5 0 0 1-.012-2.046c.326-1.546 1.438-2.995 3.574-4.33l1.077-.673.402 1.205c.352 1.056 1.082 1.803 1.653 2.73.628 1.02.748 2.19.62 3.358C17.842 19.117 19 17.13 19 14.5c0-2.222-1.34-4.402-2.67-6.106-.548 1.228-1.703 1.66-2.83 2.224V9c0-1.369-.557-3.038-1.913-4.312Z" clip-rule="evenodd"/>
</svg>
