<svg xmlns="http://www.w3.org/2000/svg" width="25" height="25" fill="currentColor"><path d="M12.5 0C5.597 0 0 5.738 0 12.816c0 5.663 3.582 10.467 8.548 12.162.625.119.854-.278.854-.617 0-.305-.011-1.315-.017-2.386-3.477.776-4.21-1.512-4.21-1.512-.57-1.481-1.389-1.875-1.389-1.875-1.134-.796.086-.78.086-.78 1.255.091 1.916 1.321 1.916 1.321 1.115 1.96 2.924 1.393 3.637 1.066.113-.829.437-1.394.794-1.714-2.776-.324-5.695-1.423-5.695-6.334 0-1.4.488-2.543 1.288-3.44-.13-.323-.558-1.626.12-3.392 0 0 1.05-.344 3.44 1.314a11.705 11.705 0 0 1 3.128-.431c1.062.005 2.133.147 3.132.431 2.385-1.658 3.434-1.314 3.434-1.314.68 1.766.252 3.07.122 3.392.802.897 1.287 2.04 1.287 3.44 0 4.923-2.925 6.007-5.708 6.324.448.398.848 1.177.848 2.373 0 1.715-.015 3.095-.015 3.517 0 .341.225.741.859.615C21.423 23.28 25 18.477 25 12.816 25 5.738 19.403 0 12.5 0ZM4.682 18.257c-.028.064-.126.083-.215.04-.09-.042-.141-.13-.112-.193.027-.066.125-.084.216-.04.09.042.142.13.11.193Zm.615.563c-.06.056-.177.03-.256-.06-.081-.089-.097-.208-.036-.266.061-.056.174-.03.256.06.082.09.098.209.036.266Zm.421.72c-.076.054-.201.003-.279-.111-.076-.114-.076-.25.002-.305.077-.055.2-.006.28.107.076.116.076.253-.003.309Zm.714.833c-.069.078-.215.057-.321-.049-.11-.103-.14-.25-.071-.327.069-.078.216-.056.323.049.109.103.142.25.069.327Zm.922.281c-.03.1-.171.146-.313.104-.141-.044-.234-.162-.205-.263.03-.101.17-.149.313-.103.141.044.234.16.205.262Zm1.049.12c.004.106-.117.193-.265.195-.15.003-.27-.082-.272-.186 0-.107.117-.194.267-.196.148-.003.27.082.27.187Zm1.03-.04c.019.102-.085.208-.232.237-.145.027-.28-.037-.298-.14-.018-.105.087-.21.232-.238.148-.026.28.035.299.14Z"/></svg>