<svg xmlns="http://www.w3.org/2000/svg" width="28" height="19" fill="currentColor"><path d="M27.657 5.573C26.787.765 22.191.167 22.191.167H1.605c-.68 0-.764.939-.764.939S.75 9.727.816 15.021c.185 2.854 2.91 3.146 2.91 3.146s9.3-.027 13.461-.058c2.743-.502 3.018-3.02 2.99-4.395 4.896.282 8.35-3.333 7.48-8.141ZM15.213 9.706c-1.402 1.71-4.512 4.68-4.512 4.68s-.137.14-.35.027a1.155 1.155 0 0 1-.12-.106c-.5-.52-3.79-3.589-4.539-4.654-.798-1.136-1.171-3.178-.102-4.367 1.07-1.189 3.38-1.279 4.908.479 0 0 1.76-2.098 3.902-1.134 2.141.966 2.06 3.545.813 5.075Zm6.944.562c-1.044.137-1.892.033-1.892.033V3.614h1.991s2.218.649 2.218 3.105c0 2.252-1.108 3.14-2.317 3.55Z"/></svg>