<svg width="25" height="25" fill="currentColor" xmlns="http://www.w3.org/2000/svg"><path d="M24.8756 9.09365C24.07 4.56345 19.8143 4 19.8143 4H0.752804C0.12316 4 0.0453803 4.88475 0.0453803 4.88475C0.0453803 4.88475 -0.0388809 13.0076 0.0222316 17.9958C0.193532 20.6849 2.71674 20.96 2.71674 20.96C2.71674 20.96 11.328 20.9346 15.1809 20.9053C17.7208 20.4324 17.9754 18.0598 17.9495 16.7643C22.4829 17.03 25.6811 13.6239 24.8756 9.09365ZM13.3531 12.9879C12.0549 14.5991 9.17522 17.3975 9.17522 17.3975C9.17522 17.3975 9.04836 17.5294 8.85114 17.4229C8.81187 17.3923 8.77475 17.3589 8.74002 17.323C8.27705 16.8331 5.23068 13.9414 4.53715 12.9379C3.79824 11.8676 3.45287 9.94354 4.4427 8.82324C5.43347 7.70293 7.5724 7.61813 8.98725 9.27456C8.98725 9.27456 10.6169 7.29778 12.6003 8.20608C14.5827 9.11627 14.5077 11.5463 13.3531 12.9879ZM19.7829 13.5174C18.8162 13.6465 18.031 13.5485 18.031 13.5485V7.24784H19.8745C19.8745 7.24784 21.9283 7.85934 21.9283 10.1734C21.9283 12.2953 20.9023 13.132 19.7829 13.5183V13.5174Z"/></svg>