<svg xmlns="http://www.w3.org/2000/svg" width="31" height="31" fill="none"><path stroke="#FAFAFA" stroke-linecap="round" stroke-linejoin="round" stroke-width="2.115" d="M20.563 18.842a8.462 8.462 0 0 1-8.237 10.408v-6.769m8.237-3.64C25.83 14.995 29.25 8.772 29.25 1.75c-7.021 0-13.243 3.421-17.09 8.687m8.403 8.405a21.05 21.05 0 0 1-8.236 3.64m-.168-12.045a8.462 8.462 0 0 0-10.41 8.236H8.52m3.64-8.236a21.052 21.052 0 0 0-3.64 8.236m3.807 3.808c-.146.03-.292.058-.44.084a21.278 21.278 0 0 1-3.451-3.452c.026-.147.055-.294.084-.44m-3.157 3.372a6.337 6.337 0 0 0-2.48 6.072 6.337 6.337 0 0 0 6.072-2.48m12.891-14.368a2.115 2.115 0 1 1-4.23 0 2.115 2.115 0 0 1 4.23 0"/></svg>