<svg xmlns="http://www.w3.org/2000/svg" fill="currentColor" viewBox="0 0 24 24">
  <path d="m18.42 2.797.386.056c.6.095 1.272.254 1.685.667.413.413.573 1.086.668 1.686l.056.385c.126.91.159 2.103-.056 3.427-.424 2.613-1.815 5.73-5.308 8.145-.015.178-.02.358-.017.537l.017.543c.01.362.004.723-.096 1.07-.19.66-.867 1.095-1.5 1.407l-.31.147-.4.176-.273.11c-.707.27-1.56.459-2.118-.1-.253-.253-.37-.597-.464-.941l-.046-.172c-.16-.607-.341-1.21-.567-1.794a2.998 2.998 0 0 1-.198.218c-.545.544-1.284.818-2.023 1.03l-.491.135-.49.13-.478.12-.432.1-.517.11-.323.063a1.009 1.009 0 0 1-1.177-1.177l.111-.551.129-.578.124-.51.225-.845c.223-.82.494-1.665 1.1-2.27l.099-.095-.763-.274-.767-.264c-.449-.148-.921-.304-1.247-.63-.596-.596-.343-1.526-.046-2.257l.166-.387.137-.301c.317-.674.767-1.45 1.483-1.656.347-.1.707-.106 1.07-.097l.543.018c.18.005.359-.001.537-.017 2.414-3.493 5.532-4.884 8.145-5.308a11.7 11.7 0 0 1 3.426-.056Zm-3.106 2.03c-2.198.357-4.869 1.534-6.953 4.669-.253.38-.68.56-1.115.63-.246.04-.494.05-.743.05l-.747-.011a9.31 9.31 0 0 0-.373.006c-.304.404-.516.884-.675 1.36l1.5.546.617.233c1.128.442 2.22.977 3.06 1.817 1.415 1.415 2.134 3.266 2.654 5.157.456-.16.914-.364 1.302-.655l.006-.373-.011-.746c0-.248.01-.496.05-.744.068-.435.25-.862.63-1.115 3.135-2.084 4.312-4.755 4.669-6.953.18-1.11.15-2.102.049-2.833a5.398 5.398 0 0 0-.193-.895 5.397 5.397 0 0 0-.895-.192 9.7 9.7 0 0 0-2.832.049ZM7.05 15.535c-.35.423-.513.978-.644 1.528l-.108.468-.055.226.694-.163c.55-.13 1.106-.295 1.528-.645a1 1 0 1 0-1.415-1.414Zm5.657-7.07a2 2 0 1 1 2.83 2.831 2 2 0 0 1-2.83-2.832Z"/>
</svg>
