<svg xmlns="http://www.w3.org/2000/svg" width="200" height="44" fill="none"><path fill="#fff" d="m25.572 0 25.573 44H0l5.406-9.302h29.52l-9.354-16.093-3.928 6.76H10.83L25.572 0Zm37.434 35.52L73.534 7.67h8.774l10.529 27.85h-7.795l-1.673-4.823H72.188l-1.674 4.824h-7.508Zm10.936-10.256h7.632l-2-5.878c-.109-.297-.245-.662-.408-1.094-.136-.46-.286-.933-.449-1.419l-.408-1.54a16.37 16.37 0 0 0-.408-1.338h-.286a15.942 15.942 0 0 1-.49 1.743c-.19.649-.394 1.297-.612 1.946a47.56 47.56 0 0 1-.53 1.702l-2.04 5.879ZM99.858 35.52V13.63h-9.1V7.67h25.505v5.96h-9.1v21.89h-7.305Zm20.519 0V7.67h7.305v21.892h14.242v5.959h-21.547Zm22.691 0 10.529-27.85h8.774l10.528 27.85h-7.794l-1.673-4.823H152.25l-1.673 4.824h-7.509Zm10.937-10.256h7.631l-1.999-5.878a132.24 132.24 0 0 0-.408-1.094c-.136-.46-.286-.933-.449-1.419l-.408-1.54c-.136-.514-.272-.96-.409-1.338h-.285a15.927 15.927 0 0 1-.49 1.743c-.19.649-.394 1.297-.612 1.946a45.02 45.02 0 0 1-.531 1.702l-2.04 5.879Zm33.875 10.743c-1.768 0-3.428-.162-4.979-.486-1.55-.297-2.924-.797-4.121-1.5a7.942 7.942 0 0 1-2.775-2.757c-.681-1.162-1.021-2.58-1.021-4.256v-.365c0-.135.014-.243.041-.324h7.06c0 .08-.014.189-.041.324v.284c0 .864.218 1.567.653 2.108.463.513 1.102.892 1.918 1.135.816.216 1.769.324 2.857.324.598 0 1.156-.027 1.673-.081a6.605 6.605 0 0 0 1.387-.284 4.785 4.785 0 0 0 1.061-.486c.327-.216.558-.46.694-.73.163-.297.245-.635.245-1.013 0-.622-.245-1.135-.734-1.54-.463-.406-1.102-.744-1.918-1.014a30.398 30.398 0 0 0-2.694-.77c-1.006-.244-2.054-.5-3.142-.77a23.657 23.657 0 0 1-3.142-1.014 11.713 11.713 0 0 1-2.735-1.54 7.25 7.25 0 0 1-1.918-2.311c-.462-.946-.693-2.081-.693-3.406 0-1.46.313-2.716.938-3.77a7.475 7.475 0 0 1 2.571-2.635c1.116-.676 2.394-1.162 3.836-1.46 1.442-.324 2.979-.486 4.612-.486 1.605 0 3.101.162 4.489.487 1.414.324 2.666.838 3.754 1.54 1.088.676 1.932 1.54 2.53 2.595.626 1.027.952 2.27.979 3.73v.486h-7.019v-.284c0-.622-.176-1.162-.53-1.622-.327-.486-.83-.864-1.51-1.135-.68-.297-1.524-.446-2.53-.446-1.007 0-1.864.095-2.571.284-.68.19-1.211.46-1.592.81-.353.352-.53.771-.53 1.258a1.8 1.8 0 0 0 .694 1.459c.489.378 1.142.703 1.958.973.817.27 1.728.527 2.735.77 1.006.216 2.04.46 3.101.73 1.088.243 2.136.567 3.142.973a10.68 10.68 0 0 1 2.734 1.5 6.313 6.313 0 0 1 1.918 2.23c.49.891.735 1.972.735 3.243 0 2.216-.531 4-1.592 5.35-1.033 1.352-2.475 2.338-4.325 2.96-1.823.621-3.891.932-6.203.932Z"/></svg>