<?xml version="1.0" standalone="no"?>
<!DOCTYPE svg PUBLIC "-//W3C//DTD SVG 20010904//EN"
 "http://www.w3.org/TR/2001/REC-SVG-20010904/DTD/svg10.dtd">
<svg version="1.0" xmlns="http://www.w3.org/2000/svg"
 width="700.000000pt" height="700.000000pt" viewBox="0 0 700.000000 700.000000"
 preserveAspectRatio="xMidYMid meet">
<metadata>
Created by potrace 1.14, written by Peter Selinger 2001-2017
</metadata>
<g transform="translate(0.000000,700.000000) scale(0.100000,-0.100000)"
fill="#000000" stroke="none">
<path d="M3349 6463 c-78 -136 -188 -327 -244 -423 -56 -96 -108 -186 -116
-200 -8 -14 -20 -33 -28 -42 -8 -10 -10 -18 -6 -18 4 0 1 -8 -7 -17 -8 -10
-77 -126 -152 -258 -76 -132 -142 -247 -147 -255 -48 -78 -249 -434 -249 -441
0 -5 -4 -9 -10 -9 -5 0 -10 -4 -10 -10 0 -5 -31 -62 -69 -127 -84 -145 -178
-308 -201 -348 -9 -16 -103 -178 -207 -360 -105 -181 -200 -346 -211 -366 -11
-20 -39 -67 -61 -104 -23 -37 -41 -69 -41 -70 0 -4 -54 -99 -92 -163 l-20 -32
739 0 739 1 76 132 c42 73 115 200 163 282 48 83 101 174 117 203 17 30 57 99
89 154 32 55 59 103 59 106 0 4 8 17 18 30 17 22 18 20 147 -204 72 -124 141
-245 154 -268 12 -22 38 -66 56 -96 18 -30 44 -75 57 -100 14 -25 90 -157 170
-295 80 -137 161 -279 182 -315 20 -36 41 -72 46 -80 23 -36 200 -343 200
-346 0 -2 38 -67 84 -146 45 -79 94 -163 108 -188 14 -25 39 -68 56 -97 17
-28 29 -53 27 -55 -2 -1 -909 -3 -2015 -2 l-2011 0 -16 -30 c-9 -17 -24 -42
-33 -56 -27 -38 -385 -663 -388 -677 -2 -7 -8 -13 -13 -13 -5 0 -9 -5 -9 -11
0 -6 -23 -49 -51 -97 -29 -48 -63 -107 -77 -132 -14 -25 -33 -58 -43 -75 -10
-16 -30 -52 -45 -80 -14 -27 -32 -57 -39 -65 -6 -8 -14 -22 -17 -30 -5 -13
386 -15 3478 -15 1915 0 3485 3 3489 6 3 4 -82 158 -190 344 -107 185 -195
338 -195 340 0 1 -43 76 -96 166 -53 90 -110 189 -126 219 -16 30 -42 75 -58
100 -15 25 -99 169 -185 320 -87 151 -188 327 -225 390 -37 63 -78 135 -92
160 -24 43 -243 423 -471 815 -60 105 -119 206 -130 225 -10 19 -62 109 -115
200 -150 260 -318 552 -339 590 -11 19 -69 118 -128 220 -59 102 -121 210
-137 240 -17 30 -39 67 -49 82 -11 14 -19 29 -19 32 0 4 -20 39 -44 79 -24 39
-54 92 -68 117 -43 75 -167 294 -178 310 -13 21 -97 166 -128 220 -23 42 -157
274 -239 415 -19 33 -38 67 -43 75 -97 168 -170 296 -196 338 l-32 53 -143
-248z"/>
</g>
</svg>
