<svg xmlns="http://www.w3.org/2000/svg" width="933.333" height="933.333" version="1.0" viewBox="0 0 700 700"><path d="M334.9 53.7c-7.8 13.6-18.8 32.7-24.4 42.3-5.6 9.6-10.8 18.6-11.6 20-.8 1.4-2 3.3-2.8 4.2-.8 1-1 1.8-.6 1.8s.1.8-.7 1.7c-.8 1-7.7 12.6-15.2 25.8-7.6 13.2-14.2 24.7-14.7 25.5-4.8 7.8-24.9 43.4-24.9 44.1 0 .5-.4.9-1 .9-.5 0-1 .4-1 1 0 .5-3.1 6.2-6.9 12.7-8.4 14.5-17.8 30.8-20.1 34.8-.9 1.6-10.3 17.8-20.7 36-10.5 18.1-20 34.6-21.1 36.6-1.1 2-3.9 6.7-6.1 10.4-2.3 3.7-4.1 6.9-4.1 7 0 .4-5.4 9.9-9.2 16.3l-2 3.2h73.9l73.9-.1 7.6-13.2c4.2-7.3 11.5-20 16.3-28.2 4.8-8.3 10.1-17.4 11.7-20.3 1.7-3 5.7-9.9 8.9-15.4s5.9-10.3 5.9-10.6c0-.4.8-1.7 1.8-3 1.7-2.2 1.8-2 14.7 20.4 7.2 12.4 14.1 24.5 15.4 26.8 1.2 2.2 3.8 6.6 5.6 9.6 1.8 3 4.4 7.5 5.7 10 1.4 2.5 9 15.7 17 29.5 8 13.7 16.1 27.9 18.2 31.5 2 3.6 4.1 7.2 4.6 8 2.3 3.6 20 34.3 20 34.6 0 .2 3.8 6.7 8.4 14.6 4.5 7.9 9.4 16.3 10.8 18.8 1.4 2.5 3.9 6.8 5.6 9.7 1.7 2.8 2.9 5.3 2.7 5.5-.2.1-90.9.3-201.5.2H73.9l-1.6 3c-.9 1.7-2.4 4.2-3.3 5.6-2.7 3.8-38.5 66.3-38.8 67.7-.2.7-.8 1.3-1.3 1.3s-.9.5-.9 1.1c0 .6-2.3 4.9-5.1 9.7-2.9 4.8-6.3 10.7-7.7 13.2-1.4 2.5-3.3 5.8-4.3 7.5-1 1.6-3 5.2-4.5 8-1.4 2.7-3.2 5.7-3.9 6.5-.6.8-1.4 2.2-1.7 3-.5 1.3 38.6 1.5 347.8 1.5 191.5 0 348.5-.3 348.9-.6.3-.4-8.2-15.8-19-34.4-10.7-18.5-19.5-33.8-19.5-34 0-.1-4.3-7.6-9.6-16.6-5.3-9-11-18.9-12.6-21.9-1.6-3-4.2-7.5-5.8-10-1.5-2.5-9.9-16.9-18.5-32-8.7-15.1-18.8-32.7-22.5-39-3.7-6.3-7.8-13.5-9.2-16-2.4-4.3-24.3-42.3-47.1-81.5-6-10.5-11.9-20.6-13-22.5-1-1.9-6.2-10.9-11.5-20-15-26-31.8-55.2-33.9-59-1.1-1.9-6.9-11.8-12.8-22s-12.1-21-13.7-24c-1.7-3-3.9-6.7-4.9-8.2-1.1-1.4-1.9-2.9-1.9-3.2 0-.4-2-3.9-4.4-7.9-2.4-3.9-5.4-9.2-6.8-11.7-4.3-7.5-16.7-29.4-17.8-31-1.3-2.1-9.7-16.6-12.8-22-2.3-4.2-15.7-27.4-23.9-41.5-1.9-3.3-3.8-6.7-4.3-7.5-9.7-16.8-17-29.6-19.6-33.8l-3.2-5.3-14.3 24.8z"/></svg>